<?xml version="1.0" standalone="no"?>
<!DOCTYPE svg PUBLIC "-//W3C//DTD SVG 20010904//EN"
 "http://www.w3.org/TR/2001/REC-SVG-20010904/DTD/svg10.dtd">
<svg version="1.0" xmlns="http://www.w3.org/2000/svg"
 width="500.000000pt" height="500.000000pt" viewBox="0 0 500.000000 500.000000"
 preserveAspectRatio="xMidYMid meet">

<g transform="translate(0.000000,500.000000) scale(0.100000,-0.100000)"
fill="#000000" stroke="none">
<path d="M2320 4259 c-478 -50 -922 -297 -1214 -673 -270 -347 -404 -792 -367
-1214 6 -76 16 -155 22 -177 5 -22 12 -52 14 -68 10 -66 38 -146 49 -140 6 4
24 8 41 8 17 1 41 7 53 14 21 11 277 33 365 31 26 -1 37 3 32 10 -4 7 2 6 14
-2 15 -9 26 -10 37 -3 15 9 16 47 15 355 -2 388 11 656 34 745 58 221 217 381
437 441 96 26 372 37 783 31 412 -7 481 -13 595 -59 175 -69 307 -220 355
-406 25 -97 34 -284 34 -662 1 -511 -12 -630 -84 -775 -36 -74 -115 -175 -152
-196 -12 -6 -19 -17 -16 -22 4 -6 0 -8 -10 -4 -9 3 -21 -1 -29 -11 -9 -11 -10
-14 0 -8 7 4 12 2 12 -6 0 -11 2 -10 9 0 6 10 10 9 14 -7 3 -12 1 -19 -4 -15
-5 3 -9 0 -9 -6 0 -7 8 -9 21 -5 15 5 22 2 26 -13 3 -11 19 -26 36 -33 17 -7
60 -42 96 -78 36 -36 71 -66 76 -66 6 0 11 -10 13 -22 2 -15 10 -23 22 -23 10
0 21 -8 23 -18 3 -12 5 -13 6 -2 1 8 17 26 36 39 55 37 174 168 247 271 277
390 380 907 276 1389 -111 521 -472 979 -953 1211 -296 143 -637 203 -955 169z"/>
<path d="M1988 3400 c-207 -25 -323 -122 -376 -313 -15 -54 -17 -119 -17 -538
0 -527 -2 -510 63 -507 58 2 232 -11 244 -18 6 -4 29 -9 52 -11 23 -3 63 -16
91 -29 42 -21 50 -22 58 -9 7 13 11 12 29 -5 12 -11 30 -20 40 -20 9 0 37 -7
62 -15 24 -8 55 -16 69 -17 15 -1 31 -12 37 -24 10 -17 26 -23 86 -30 50 -7
75 -6 78 1 2 5 5 3 5 -6 1 -17 60 -39 104 -39 14 0 29 -4 32 -10 3 -5 19 -10
35 -10 16 0 32 -4 35 -10 3 -5 23 -10 44 -10 22 0 44 -6 51 -15 7 -8 16 -15
21 -15 16 0 89 -35 89 -42 0 -5 6 -8 14 -8 19 0 118 -41 136 -56 19 -16 86
-12 125 8 53 28 120 94 149 148 58 106 59 114 63 635 5 509 -1 622 -38 720
-26 69 -112 165 -176 196 -104 50 -125 52 -648 55 -269 1 -520 -2 -557 -6z
m1173 -185 c40 -21 69 -71 69 -120 0 -170 -250 -181 -267 -11 -11 104 103 179
198 131z m-481 -172 c126 -41 229 -119 299 -227 114 -174 127 -383 36 -572
-51 -106 -152 -207 -255 -257 -97 -46 -107 -49 -160 -54 -25 -2 -56 -11 -69
-20 -13 -8 -20 -10 -17 -4 5 8 -2 11 -21 11 -63 0 -111 8 -168 29 -84 32 -99
36 -92 25 3 -6 -7 -10 -23 -9 -15 0 -26 4 -23 8 3 5 11 6 19 3 25 -10 24 12
-1 28 -14 9 -25 15 -25 12 0 -15 -128 119 -161 168 -82 126 -112 313 -74 460
59 225 264 403 490 425 90 9 161 2 245 -26z m-282 -1135 c8 -8 15 -8 25 1 11
9 17 7 28 -6 13 -16 12 -17 -3 -4 -16 12 -22 9 -20 -9 0 -3 -15 -6 -33 -6 -18
0 -31 4 -29 8 3 4 -3 8 -13 9 -16 0 -16 1 2 9 27 12 29 12 43 -2z"/>
<path d="M2417 2859 c-108 -25 -201 -102 -250 -207 -28 -59 -32 -77 -31 -152
0 -109 32 -184 107 -258 76 -75 151 -106 252 -106 44 0 98 6 120 13 242 82
330 369 177 578 -79 107 -239 164 -375 132z"/>
<path d="M2375 1900 c3 -5 8 -10 11 -10 2 0 4 5 4 10 0 6 -5 10 -11 10 -5 0
-7 -4 -4 -10z"/>
<path d="M3040 1641 c0 -6 5 -13 10 -16 6 -3 10 1 10 9 0 9 -4 16 -10 16 -5 0
-10 -4 -10 -9z"/>
<path d="M3279 1453 c-13 -16 -12 -17 4 -4 16 13 21 21 13 21 -2 0 -10 -8 -17
-17z"/>
</g>
</svg>
