<?xml version="1.0" standalone="no"?>
<!DOCTYPE svg PUBLIC "-//W3C//DTD SVG 20010904//EN"
 "http://www.w3.org/TR/2001/REC-SVG-20010904/DTD/svg10.dtd">
<svg version="1.0" xmlns="http://www.w3.org/2000/svg"
 width="1920.000000pt" height="1920.000000pt" viewBox="0 0 1920.000000 1920.000000"
 preserveAspectRatio="xMidYMid meet">

<g transform="translate(0.000000,1920.000000) scale(0.100000,-0.100000)"
fill="#000000" stroke="none">
<path d="M9395 15354 c-38 -2 -135 -8 -215 -14 -1767 -129 -3379 -1071 -4368
-2553 -896 -1341 -1187 -2993 -802 -4557 344 -1395 1202 -2616 2403 -3418 644
-431 1348 -720 2110 -867 l117 -22 0 2038 0 2039 -715 0 -715 0 0 815 0 815
715 0 715 0 0 558 c1 606 10 916 35 1087 79 557 371 1091 753 1373 321 237
687 348 1302 393 259 19 564 -7 1072 -92 97 -16 179 -29 182 -29 3 0 6 -308 6
-685 l0 -685 -152 0 c-263 0 -730 -20 -799 -35 -219 -45 -415 -193 -511 -386
-113 -231 -138 -422 -138 -1075 l0 -424 770 0 770 0 0 -24 c0 -30 -208 -1587
-215 -1603 -3 -10 -146 -13 -665 -13 l-660 0 0 -2045 c0 -1772 2 -2045 14
-2045 8 0 81 11 163 25 917 158 1756 524 2508 1092 226 171 372 299 590 518
219 218 347 364 518 590 637 843 1018 1791 1136 2829 107 937 -21 1898 -370
2769 -475 1186 -1328 2181 -2429 2834 -742 439 -1567 703 -2430 777 -177 16
-566 27 -695 20z"/>
<path d="M8980 3880 c184 -44 1057 -44 1241 0 19 4 -261 8 -621 8 -362 0 -639
-4 -620 -8z"/>
</g>
</svg>
